PathFileType	4	(X/Y/Z)	C:/Users/opensim2020/Desktop/walking_exp_matlab/subject03_walking12_straight_02.trc																																																																																																																																														
DataRate	CameraRate	NumFrames	NumMarkers	Units	OrigDataRate	OrigDataStartFrame	OrigNumFrames																																																																																																																																										
100	100	5	48	mm	100	1217	187																																																																																																																																										
Frame#	Time	LFHD			RFHD			LBHD			RBHD			C7			T10			CLAV			STRN			RBAK			LSHO			LUPA			LELB			LFRM			LWRA			LWRB			LFIN			RSHO			RUPA			RELB			RFRM			RWRA			RWRB			RFIN			LASI			RASI			LPSI			RPSI			LTHI			LKNE			LTIB			LANK			LHEE			LTOE			RTHI			RKNE			RTIB			RANK			RHEE			RTOE			*39			*40			*41			*42			*43			*44			*45			*46			*47		
		X1	Y1	Z1	X2	Y2	Z2	X3	Y3	Z3	X4	Y4	Z4	X5	Y5	Z5	X6	Y6	Z6	X7	Y7	Z7	X8	Y8	Z8	X9	Y9	Z9	X10	Y10	Z10	X11	Y11	Z11	X12	Y12	Z12	X13	Y13	Z13	X14	Y14	Z14	X15	Y15	Z15	X16	Y16	Z16	X17	Y17	Z17	X18	Y18	Z18	X19	Y19	Z19	X20	Y20	Z20	X21	Y21	Z21	X22	Y22	Z22	X23	Y23	Z23	X24	Y24	Z24	X25	Y25	Z25	X26	Y26	Z26	X27	Y27	Z27	X28	Y28	Z28	X29	Y29	Z29	X30	Y30	Z30	X31	Y31	Z31	X32	Y32	Z32	X33	Y33	Z33	X34	Y34	Z34	X35	Y35	Z35	X36	Y36	Z36	X37	Y37	Z37	X38	Y38	Z38	X39	Y39	Z39	X40	Y40	Z40	X41	Y41	Z41	X42	Y42	Z42	X43	Y43	Z43	X44	Y44	Z44	X45	Y45	Z45	X46	Y46	Z46	X47	Y47	Z47	X48	Y48	Z48
																																																																																																																																																	
117	1.16	198.45015	1600.91455	-1485.73816	175.20102	1603.97827	-1354.2384	69.75999	1562.70056	-1502.99976	51.87344	1565.34521	-1372.88257	27.01921	1395.31934	-1440.54651	7.41365	1079.14038	-1440.99329	150.79637	1323.35535	-1434.66833	203.26189	1161.59619	-1443.60168	-23.67909	1212.38635	-1352.75916	105.94953	1361.30811	-1591.62036	137.93689	1176.78186	-1674.03967	188.01994	1068.94287	-1689.91101	294.1441	1008.01929	-1669.76416	390.84711	960.7373	-1616.42969	381.42313	935.86719	-1664.75208	458.3363	916.07227	-1644.22473	93.25662	1342.35059	-1277.03369	69.35289	1119.34436	-1209.40955	68.62691	1005.69592	-1197.354	54.52854	868.93365	-1192.92188	61.61663	766.7644	-1225.18018	28.34518	771.26068	-1181.19324	19.67113	695.13806	-1197.20435	172.98584	918.14606	-1564.49805	187.91142	927.60638	-1325.62085	13.73445	937.0528	-1501.35168	22.85543	945.83228	-1353.79114	79.03647	620.27283	-1600.23779	44.37265	442.45996	-1573.74341	-106.99542	305.78302	-1564.00525	-244.43839	152.50757	-1515.52649	-293.66122	152.14557	-1476.01501	-152.27451	32.78605	-1486.24622	211.53194	642.0802	-1281.05127	288.26083	484.90094	-1330.95093	288.73526	288.79831	-1321.83313	297.65942	72.83114	-1367.19165	249.68697	40.39717	-1414.35657	437.14938	39.90455	-1395.60889	NaN	NaN	NaN	NaN	NaN	NaN	NaN	NaN	NaN	NaN	NaN	NaN	NaN	NaN	NaN	NaN	NaN	NaN	NaN	NaN	NaN	NaN	NaN	NaN	NaN	NaN	NaN
118	1.17	212.63651	1601.49573	-1485.39453	189.5421	1604.72375	-1354.07422	83.77734	1564.19482	-1502.46704	66.0022	1566.93933	-1372.54749	40.52246	1396.78455	-1439.62219	21.14266	1080.01123	-1441.04602	164.40283	1324.69434	-1434.57336	217.20587	1163.0553	-1443.48279	-9.44652	1213.64551	-1351.4165	118.56103	1362.46704	-1591.1814	148.74529	1177.4552	-1673.43335	197.91902	1069.42078	-1689.09436	304.21915	1009.31073	-1669.16309	401.24933	963.35437	-1615.90796	392.14481	937.93658	-1664.01648	469.32294	920.42346	-1644.14233	107.7683	1343.58752	-1276.63	85.79149	1120.6167	-1208.9209	85.51369	1006.96783	-1197.1189	72.09062	870.29236	-1192.20972	78.46554	768.05298	-1224.92664	46.31982	772.55884	-1180.17737	36.34063	696.27234	-1196.46045	188.01366	918.86169	-1563.02551	202.54709	930.45502	-1324.58179	28.68854	937.13226	-1501.64771	37.33007	947.48395	-1354.08325	99.37145	619.2345	-1601.24878	68.38965	440.8812	-1576.97693	-87.21982	309.27576	-1565.3468	-228.87299	161.21989	-1515.1322	-276.2977	165.15172	-1474.21118	-150.17349	32.68004	-1485.49402	226.28525	643.56757	-1280.97229	302.55945	485.81259	-1332.32715	297.84027	289.17633	-1322.93433	299.34351	73.235	-1367.91833	250.2352	40.85816	-1414.38904	438.40829	39.38527	-1396.23022	NaN	NaN	NaN	NaN	NaN	NaN	NaN	NaN	NaN	NaN	NaN	NaN	NaN	NaN	NaN	NaN	NaN	NaN	NaN	NaN	NaN	NaN	NaN	NaN	NaN	NaN	NaN
119	1.18	226.68658	1602.14539	-1485.26074	203.72406	1605.2323	-1353.79504	97.33598	1565.65576	-1502.25977	79.863	1568.40186	-1372.21045	54.22531	1397.98657	-1439.0459	34.82332	1080.93896	-1440.65649	177.94284	1325.90723	-1434.56458	231.13892	1164.50623	-1443.45789	4.90945	1214.68115	-1350.20984	130.97495	1363.64819	-1590.5177	159.61252	1178.30908	-1672.72656	207.58517	1070.14319	-1688.07336	314.10989	1010.5379	-1668.51563	411.11172	965.43872	-1615.48352	402.13351	939.37891	-1663.24255	479.517	923.72998	-1644.27344	122.13771	1345.27344	-1276.47925	102.16414	1122.1842	-1208.41406	102.7027	1008.5047	-1197.01257	89.74059	871.87183	-1191.69446	95.94971	769.55426	-1224.67236	64.7848	774.05536	-1179.21997	54.01431	697.65613	-1195.53796	202.53186	919.75739	-1561.96228	217.02863	933.15363	-1323.77612	43.26024	937.34509	-1501.55652	51.89346	949.06366	-1354.14441	120.01037	618.16315	-1602.25732	93.27436	439.4725	-1579.453	-65.52603	312.62119	-1566.30212	-210.94849	168.95268	-1515.97705	-256.35489	177.90862	-1473.48145	-148.54501	32.1451	-1484.21533	240.18777	644.13324	-1281.09973	314.5842	485.43564	-1332.77478	305.7215	288.83539	-1323.61658	299.89832	73.27093	-1368.55469	250.41644	40.97792	-1414.75916	438.91632	39.05314	-1396.89319	NaN	NaN	NaN	NaN	NaN	NaN	NaN	NaN	NaN	NaN	NaN	NaN	NaN	NaN	NaN	NaN	NaN	NaN	NaN	NaN	NaN	NaN	NaN	NaN	NaN	NaN	NaN
120	1.19	240.58189	1602.85767	-1485.03821	217.756	1605.85168	-1353.57922	111.00304	1567.22278	-1502.02893	93.67287	1569.76477	-1371.98108	67.38888	1398.76221	-1438.3252	48.70629	1081.89246	-1439.99438	191.35522	1327.14038	-1434.599	244.84416	1165.89587	-1443.64795	19.27842	1215.79651	-1349.19128	143.42317	1365.19434	-1590.1449	170.49689	1179.2572	-1672.03467	216.97569	1070.78113	-1686.95239	323.22849	1011.29572	-1667.7467	420.61807	966.68469	-1615.03369	411.45294	940.1698	-1662.42664	489.01062	925.92554	-1644.44031	136.48549	1346.95081	-1276.41907	118.63445	1123.97314	-1207.66711	119.73457	1010.26245	-1196.59277	107.60035	873.57404	-1191.16809	114.15571	771.31122	-1224.40344	84.04348	775.62732	-1178.24854	72.8573	699.05762	-1194.5835	216.55666	920.92157	-1560.99231	231.36874	935.56372	-1323.19324	57.18681	937.87976	-1501.13489	66.19699	950.82928	-1353.83691	140.51094	617.04199	-1603.21033	118.70654	438.14853	-1581.15637	-42.19567	315.63605	-1566.67493	-190.571	174.92905	-1517.81909	-234.5885	190.49112	-1475.09082	-143.64384	34.61309	-1484.40466	253.04329	644.633	-1281.0376	324.60922	484.53101	-1332.40125	311.62207	288.17856	-1323.71741	300.12112	73.40178	-1368.94519	250.34279	40.98288	-1414.83264	438.99899	38.93411	-1397.43787	NaN	NaN	NaN	NaN	NaN	NaN	NaN	NaN	NaN	NaN	NaN	NaN	NaN	NaN	NaN	NaN	NaN	NaN	NaN	NaN	NaN	NaN	NaN	NaN	NaN	NaN	NaN
121	1.2	254.46146	1603.70935	-1484.83459	231.7581	1606.43481	-1353.31836	124.65799	1568.99963	-1501.88245	107.43294	1571.26233	-1371.79602	80.59892	1399.59314	-1437.99963	62.39219	1082.93506	-1439.16003	204.6591	1328.44946	-1434.85864	258.479	1167.37354	-1444.1134	33.60433	1216.93567	-1348.25793	155.45558	1366.42334	-1589.7981	181.20096	1180.10535	-1671.35559	226.10379	1071.31665	-1685.96289	332.1665	1011.64813	-1667.13904	429.81787	967.35522	-1614.70508	420.29883	940.37842	-1661.71216	497.99631	927.02014	-1644.67151	150.87886	1348.66309	-1276.33594	134.56113	1125.79675	-1206.96436	136.93997	1012.01239	-1196.12512	126.08144	875.26837	-1190.63342	133.25572	773.21649	-1224.09644	103.66255	777.18524	-1177.40967	92.90006	700.59943	-1193.68896	229.94853	922.20294	-1560.51111	245.2588	937.53448	-1323.10999	70.53914	938.59027	-1500.35193	80.6412	952.47357	-1353.17224	160.22598	615.99805	-1604.0791	144.21114	436.7897	-1582.49756	-17.66195	318.16364	-1567.40967	-168.75436	181.06622	-1518.85913	-211.73488	202.3777	-1477.4303	-133.35384	39.31646	-1485.21472	264.58597	645.43512	-1280.71765	333.29062	483.37613	-1331.75427	315.62637	287.83716	-1323.80896	300.14377	73.505	-1369.03503	250.51662	41.01481	-1414.92786	439.03601	38.83361	-1397.45984	NaN	NaN	NaN	NaN	NaN	NaN	NaN	NaN	NaN	NaN	NaN	NaN	NaN	NaN	NaN	NaN	NaN	NaN	NaN	NaN	NaN	NaN	NaN	NaN	NaN	NaN	NaN
